<svg xmlns="http://www.w3.org/2000/svg" version="1.1" width="497.7mm" height="182.7mm" viewBox = " 0 0 1763.505387 647.3627369999999" >
<!-- Front--> 
<g transform="translate(22.5000185, 22.5000185) " > 
<polygon style="stroke:#000000; fill:none; stroke-width:0.90000074" points="10.62993, 0 31.0039625, 0 31.0039625, 10.62993 41.01381325, 10.62993 41.01381325, 18.070881 36.58467575, 18.070881 36.58467575, 26.929156 41.01381325, 26.929156 41.01381325, 35.787431 51.99807425, 35.787431 51.99807425, 26.929156 56.42721175, 26.929156 56.42721175, 18.070881 51.99807425, 18.070881 51.99807425, 10.62993 62.007925, 10.62993 62.007925, 0 83.267785, 0 83.267785, 10.62993 104.527645, 10.62993 104.527645, 0 125.787505, 0 125.787505, 10.62993 147.047365, 10.62993 147.047365, 0 168.30722500000002, 0 168.30722500000002, 10.62993 189.567085, 10.62993 189.567085, 0 210.826945, 0 210.826945, 10.62993 232.086805, 10.62993 232.086805, 0 253.346665, 0 253.346665, 10.62993 274.60652500000003, 10.62993 274.60652500000003, 0 295.86638500000004, 0 295.86638500000004, 10.62993 317.126245, 10.62993 317.126245, 0 338.386105, 0 338.386105, 10.62993 359.645965, 10.62993 359.645965, 0 380.905825, 0 380.905825, 10.62993 402.165685, 10.62993 402.165685, 0 423.425545, 0 423.425545, 10.62993 444.685405, 10.62993 444.685405, 0 465.945265, 0 465.945265, 10.62993 487.205125, 10.62993 487.205125, 0 508.464985, 0 508.464985, 10.62993 529.724845, 10.62993 529.724845, 0 550.9847050000001, 0 550.9847050000001, 10.62993 572.244565, 10.62993 572.244565, 0 593.504425, 0 593.504425, 10.62993 603.5142757499999, 10.62993 603.5142757499999, 18.070881 599.0851382499999, 18.070881 599.0851382499999, 26.929156 603.5142757499999, 26.929156 603.5142757499999, 35.787431 614.49853675, 35.787431 614.49853675, 26.929156 618.92767425, 26.929156 618.92767425, 18.070881 614.49853675, 18.070881 614.49853675, 10.62993 624.5083875, 10.62993 624.5083875, 0 644.88242, 0 644.88242, 32.7756175 655.51235, 32.7756175 655.51235, 42.60830275 642.402103, 42.60830275 642.402103, 55.71854975 655.51235, 55.71854975 655.51235, 65.551235 644.88242, 65.551235 644.88242, 86.81109500000001 655.51235, 86.81109500000001 655.51235, 108.070955 644.88242, 108.070955 644.88242, 129.330815 655.51235, 129.330815 655.51235, 139.16350025 642.402103, 139.16350025 642.402103, 152.27374725 655.51235, 152.27374725 655.51235, 162.10643249999998 644.88242, 162.10643249999998 644.88242, 194.88205 624.5083875, 194.88205 624.5083875, 184.25212 614.49853675, 184.25212 614.49853675, 176.81116899999998 618.92767425, 176.81116899999998 618.92767425, 167.952894 614.49853675, 167.952894 614.49853675, 159.094619 603.5142757499999, 159.094619 603.5142757499999, 167.952894 599.0851382499999, 167.952894 599.0851382499999, 176.81116899999998 603.5142757499999, 176.81116899999998 603.5142757499999, 184.25212 593.504425, 184.25212 593.504425, 194.88205 572.244565, 194.88205 572.244565, 184.25212 550.9847050000001, 184.25212 550.9847050000001, 194.88205 529.724845, 194.88205 529.724845, 184.25212 508.464985, 184.25212 508.464985, 194.88205 487.205125, 194.88205 487.205125, 184.25212 465.945265, 184.25212 465.945265, 194.88205 444.685405, 194.88205 444.685405, 184.25212 423.425545, 184.25212 423.425545, 194.88205 402.165685, 194.88205 402.165685, 184.25212 380.905825, 184.25212 380.905825, 194.88205 359.645965, 194.88205 359.645965, 184.25212 338.386105, 184.25212 338.386105, 194.88205 317.126245, 194.88205 317.126245, 184.25212 295.86638500000004, 184.25212 295.86638500000004, 194.88205 274.60652500000003, 194.88205 274.60652500000003, 184.25212 253.346665, 184.25212 253.346665, 194.88205 232.086805, 194.88205 232.086805, 184.25212 210.826945, 184.25212 210.826945, 194.88205 189.567085, 194.88205 189.567085, 184.25212 168.30722500000002, 184.25212 168.30722500000002, 194.88205 147.047365, 194.88205 147.047365, 184.25212 125.787505, 184.25212 125.787505, 194.88205 104.527645, 194.88205 104.527645, 184.25212 83.267785, 184.25212 83.267785, 194.88205 62.007925, 194.88205 62.007925, 184.25212 51.99807425, 184.25212 51.99807425, 176.81116899999998 56.42721175, 176.81116899999998 56.42721175, 167.952894 51.99807425, 167.952894 51.99807425, 159.094619 41.01381325, 159.094619 41.01381325, 167.952894 36.58467575, 167.952894 36.58467575, 176.81116899999998 41.01381325, 176.81116899999998 41.01381325, 184.25212 31.0039625, 184.25212 31.0039625, 194.88205 10.62993, 194.88205 10.62993, 162.10643249999998 0, 162.10643249999998 0, 152.27374725 13.110247000000001, 152.27374725 13.110247000000001, 139.16350025 0, 139.16350025 0, 129.330815 10.62993, 129.330815 10.62993, 108.070955 0, 108.070955 0, 86.81109500000001 10.62993, 86.81109500000001 10.62993, 65.551235 0, 65.551235 0, 55.71854975 13.110247000000001, 55.71854975 13.110247000000001, 42.60830275 0, 42.60830275 0, 32.7756175 10.62993, 32.7756175 "/> 
</g>
<!-- Back--> 
<g transform="translate(678.0123685, 22.5000185) " > 
<polygon style="stroke:#000000; fill:none; stroke-width:0.90000074" points="10.62993, 0 31.0039625, 0 31.0039625, 10.62993 41.01381325, 10.62993 41.01381325, 18.070881 36.58467575, 18.070881 36.58467575, 26.929156 41.01381325, 26.929156 41.01381325, 35.787431 51.99807425, 35.787431 51.99807425, 26.929156 56.42721175, 26.929156 56.42721175, 18.070881 51.99807425, 18.070881 51.99807425, 10.62993 62.007925, 10.62993 62.007925, 0 83.267785, 0 83.267785, 10.62993 104.527645, 10.62993 104.527645, 0 125.787505, 0 125.787505, 10.62993 147.047365, 10.62993 147.047365, 0 168.30722500000002, 0 168.30722500000002, 10.62993 189.567085, 10.62993 189.567085, 0 210.826945, 0 210.826945, 10.62993 232.086805, 10.62993 232.086805, 0 253.346665, 0 253.346665, 10.62993 274.60652500000003, 10.62993 274.60652500000003, 0 295.86638500000004, 0 295.86638500000004, 10.62993 317.126245, 10.62993 317.126245, 0 338.386105, 0 338.386105, 10.62993 359.645965, 10.62993 359.645965, 0 380.905825, 0 380.905825, 10.62993 402.165685, 10.62993 402.165685, 0 423.425545, 0 423.425545, 10.62993 444.685405, 10.62993 444.685405, 0 465.945265, 0 465.945265, 10.62993 487.205125, 10.62993 487.205125, 0 508.464985, 0 508.464985, 10.62993 529.724845, 10.62993 529.724845, 0 550.9847050000001, 0 550.9847050000001, 10.62993 572.244565, 10.62993 572.244565, 0 593.504425, 0 593.504425, 10.62993 603.5142757499999, 10.62993 603.5142757499999, 18.070881 599.0851382499999, 18.070881 599.0851382499999, 26.929156 603.5142757499999, 26.929156 603.5142757499999, 35.787431 614.49853675, 35.787431 614.49853675, 26.929156 618.92767425, 26.929156 618.92767425, 18.070881 614.49853675, 18.070881 614.49853675, 10.62993 624.5083875, 10.62993 624.5083875, 0 644.88242, 0 644.88242, 32.7756175 655.51235, 32.7756175 655.51235, 42.60830275 642.402103, 42.60830275 642.402103, 55.71854975 655.51235, 55.71854975 655.51235, 65.551235 644.88242, 65.551235 644.88242, 86.81109500000001 655.51235, 86.81109500000001 655.51235, 108.070955 644.88242, 108.070955 644.88242, 129.330815 655.51235, 129.330815 655.51235, 139.16350025 642.402103, 139.16350025 642.402103, 152.27374725 655.51235, 152.27374725 655.51235, 162.10643249999998 644.88242, 162.10643249999998 644.88242, 194.88205 624.5083875, 194.88205 624.5083875, 184.25212 614.49853675, 184.25212 614.49853675, 176.81116899999998 618.92767425, 176.81116899999998 618.92767425, 167.952894 614.49853675, 167.952894 614.49853675, 159.094619 603.5142757499999, 159.094619 603.5142757499999, 167.952894 599.0851382499999, 167.952894 599.0851382499999, 176.81116899999998 603.5142757499999, 176.81116899999998 603.5142757499999, 184.25212 593.504425, 184.25212 593.504425, 194.88205 572.244565, 194.88205 572.244565, 184.25212 550.9847050000001, 184.25212 550.9847050000001, 194.88205 529.724845, 194.88205 529.724845, 184.25212 508.464985, 184.25212 508.464985, 194.88205 487.205125, 194.88205 487.205125, 184.25212 465.945265, 184.25212 465.945265, 194.88205 444.685405, 194.88205 444.685405, 184.25212 423.425545, 184.25212 423.425545, 194.88205 402.165685, 194.88205 402.165685, 184.25212 380.905825, 184.25212 380.905825, 194.88205 359.645965, 194.88205 359.645965, 184.25212 338.386105, 184.25212 338.386105, 194.88205 317.126245, 194.88205 317.126245, 184.25212 295.86638500000004, 184.25212 295.86638500000004, 194.88205 274.60652500000003, 194.88205 274.60652500000003, 184.25212 253.346665, 184.25212 253.346665, 194.88205 232.086805, 194.88205 232.086805, 184.25212 210.826945, 184.25212 210.826945, 194.88205 189.567085, 194.88205 189.567085, 184.25212 168.30722500000002, 184.25212 168.30722500000002, 194.88205 147.047365, 194.88205 147.047365, 184.25212 125.787505, 184.25212 125.787505, 194.88205 104.527645, 194.88205 104.527645, 184.25212 83.267785, 184.25212 83.267785, 194.88205 62.007925, 194.88205 62.007925, 184.25212 51.99807425, 184.25212 51.99807425, 176.81116899999998 56.42721175, 176.81116899999998 56.42721175, 167.952894 51.99807425, 167.952894 51.99807425, 159.094619 41.01381325, 159.094619 41.01381325, 167.952894 36.58467575, 167.952894 36.58467575, 176.81116899999998 41.01381325, 176.81116899999998 41.01381325, 184.25212 31.0039625, 184.25212 31.0039625, 194.88205 10.62993, 194.88205 10.62993, 162.10643249999998 0, 162.10643249999998 0, 152.27374725 13.110247000000001, 152.27374725 13.110247000000001, 139.16350025 0, 139.16350025 0, 129.330815 10.62993, 129.330815 10.62993, 108.070955 0, 108.070955 0, 86.81109500000001 10.62993, 86.81109500000001 10.62993, 65.551235 0, 65.551235 0, 55.71854975 13.110247000000001, 55.71854975 13.110247000000001, 42.60830275 0, 42.60830275 0, 32.7756175 10.62993, 32.7756175 "/> 
</g>
<!-- Left--> 
<g transform="translate(1333.5247185, 22.5000185) " > 
<polygon style="stroke:#000000; fill:none; stroke-width:0.90000074" points="0, 10.62993 32.7756175, 10.62993 32.7756175, 0 42.60830275, 0 42.60830275, 13.110247000000001 55.71854975, 13.110247000000001 55.71854975, 0 65.551235, 0 65.551235, 10.62993 86.81109500000001, 10.62993 86.81109500000001, 0 108.070955, 0 108.070955, 10.62993 129.330815, 10.62993 129.330815, 0 150.590675, 0 150.590675, 10.62993 171.850535, 10.62993 171.850535, 0 193.11039499999998, 0 193.11039499999998, 10.62993 214.370255, 10.62993 214.370255, 0 235.630115, 0 235.630115, 10.62993 256.889975, 10.62993 256.889975, 0 278.149835, 0 278.149835, 10.62993 299.409695, 10.62993 299.409695, 0 320.669555, 0 320.669555, 10.62993 341.929415, 10.62993 341.929415, 0 351.76210025, 0 351.76210025, 13.110247000000001 364.87234724999996, 13.110247000000001 364.87234724999996, 0 374.7050325, 0 374.7050325, 10.62993 407.48064999999997, 10.62993 407.48064999999997, 32.7756175 396.85071999999997, 32.7756175 396.85071999999997, 43.67129575 389.409769, 43.67129575 389.409769, 39.24215825 380.551494, 39.24215825 380.551494, 43.67129575 371.69321899999994, 43.67129575 371.69321899999994, 54.65555675 380.551494, 54.65555675 380.551494, 59.08469425 389.409769, 59.08469425 389.409769, 54.65555675 396.85071999999997, 54.65555675 396.85071999999997, 65.551235 407.48064999999997, 65.551235 407.48064999999997, 86.81109500000001 396.85071999999997, 86.81109500000001 396.85071999999997, 108.070955 407.48064999999997, 108.070955 407.48064999999997, 129.330815 396.85071999999997, 129.330815 396.85071999999997, 140.22649325 389.409769, 140.22649325 389.409769, 135.79735575 380.551494, 135.79735575 380.551494, 140.22649325 371.69321899999994, 140.22649325 371.69321899999994, 151.21075425 380.551494, 151.21075425 380.551494, 155.63989175 389.409769, 155.63989175 389.409769, 151.21075425 396.85071999999997, 151.21075425 396.85071999999997, 162.10643249999998 407.48064999999997, 162.10643249999998 407.48064999999997, 184.25212 374.7050325, 184.25212 374.7050325, 194.88205 364.87234724999996, 194.88205 364.87234724999996, 181.77180299999998 351.76210025, 181.77180299999998 351.76210025, 194.88205 341.929415, 194.88205 341.929415, 184.25212 320.669555, 184.25212 320.669555, 194.88205 299.409695, 194.88205 299.409695, 184.25212 278.149835, 184.25212 278.149835, 194.88205 256.889975, 194.88205 256.889975, 184.25212 235.630115, 184.25212 235.630115, 194.88205 214.370255, 194.88205 214.370255, 184.25212 193.11039499999998, 184.25212 193.11039499999998, 194.88205 171.850535, 194.88205 171.850535, 184.25212 150.590675, 184.25212 150.590675, 194.88205 129.330815, 194.88205 129.330815, 184.25212 108.070955, 184.25212 108.070955, 194.88205 86.81109500000001, 194.88205 86.81109500000001, 184.25212 65.551235, 184.25212 65.551235, 194.88205 55.71854975, 194.88205 55.71854975, 181.77180299999998 42.60830275, 181.77180299999998 42.60830275, 194.88205 32.7756175, 194.88205 32.7756175, 184.25212 0, 184.25212 0, 162.10643249999998 10.62993, 162.10643249999998 10.62993, 151.21075425 18.070881, 151.21075425 18.070881, 155.63989175 26.929156, 155.63989175 26.929156, 151.21075425 35.787431, 151.21075425 35.787431, 140.22649325 26.929156, 140.22649325 26.929156, 135.79735575 18.070881, 135.79735575 18.070881, 140.22649325 10.62993, 140.22649325 10.62993, 129.330815 0, 129.330815 0, 108.070955 10.62993, 108.070955 10.62993, 86.81109500000001 0, 86.81109500000001 0, 65.551235 10.62993, 65.551235 10.62993, 54.65555675 18.070881, 54.65555675 18.070881, 59.08469425 26.929156, 59.08469425 26.929156, 54.65555675 35.787431, 54.65555675 35.787431, 43.67129575 26.929156, 43.67129575 26.929156, 39.24215825 18.070881, 39.24215825 18.070881, 43.67129575 10.62993, 43.67129575 10.62993, 32.7756175 0, 32.7756175 "/> 
</g>
<!-- Right--> 
<g transform="translate(1333.5247185, 217.3820685) " > 
<polygon style="stroke:#000000; fill:none; stroke-width:0.90000074" points="0, 10.62993 32.7756175, 10.62993 32.7756175, 0 42.60830275, 0 42.60830275, 13.110247000000001 55.71854975, 13.110247000000001 55.71854975, 0 65.551235, 0 65.551235, 10.62993 86.81109500000001, 10.62993 86.81109500000001, 0 108.070955, 0 108.070955, 10.62993 129.330815, 10.62993 129.330815, 0 150.590675, 0 150.590675, 10.62993 171.850535, 10.62993 171.850535, 0 193.11039499999998, 0 193.11039499999998, 10.62993 214.370255, 10.62993 214.370255, 0 235.630115, 0 235.630115, 10.62993 256.889975, 10.62993 256.889975, 0 278.149835, 0 278.149835, 10.62993 299.409695, 10.62993 299.409695, 0 320.669555, 0 320.669555, 10.62993 341.929415, 10.62993 341.929415, 0 351.76210025, 0 351.76210025, 13.110247000000001 364.87234724999996, 13.110247000000001 364.87234724999996, 0 374.7050325, 0 374.7050325, 10.62993 407.48064999999997, 10.62993 407.48064999999997, 32.7756175 396.85071999999997, 32.7756175 396.85071999999997, 43.67129575 389.409769, 43.67129575 389.409769, 39.24215825 380.551494, 39.24215825 380.551494, 43.67129575 371.69321899999994, 43.67129575 371.69321899999994, 54.65555675 380.551494, 54.65555675 380.551494, 59.08469425 389.409769, 59.08469425 389.409769, 54.65555675 396.85071999999997, 54.65555675 396.85071999999997, 65.551235 407.48064999999997, 65.551235 407.48064999999997, 86.81109500000001 396.85071999999997, 86.81109500000001 396.85071999999997, 108.070955 407.48064999999997, 108.070955 407.48064999999997, 129.330815 396.85071999999997, 129.330815 396.85071999999997, 140.22649325 389.409769, 140.22649325 389.409769, 135.79735575 380.551494, 135.79735575 380.551494, 140.22649325 371.69321899999994, 140.22649325 371.69321899999994, 151.21075425 380.551494, 151.21075425 380.551494, 155.63989175 389.409769, 155.63989175 389.409769, 151.21075425 396.85071999999997, 151.21075425 396.85071999999997, 162.10643249999998 407.48064999999997, 162.10643249999998 407.48064999999997, 184.25212 374.7050325, 184.25212 374.7050325, 194.88205 364.87234724999996, 194.88205 364.87234724999996, 181.77180299999998 351.76210025, 181.77180299999998 351.76210025, 194.88205 341.929415, 194.88205 341.929415, 184.25212 320.669555, 184.25212 320.669555, 194.88205 299.409695, 194.88205 299.409695, 184.25212 278.149835, 184.25212 278.149835, 194.88205 256.889975, 194.88205 256.889975, 184.25212 235.630115, 184.25212 235.630115, 194.88205 214.370255, 194.88205 214.370255, 184.25212 193.11039499999998, 184.25212 193.11039499999998, 194.88205 171.850535, 194.88205 171.850535, 184.25212 150.590675, 184.25212 150.590675, 194.88205 129.330815, 194.88205 129.330815, 184.25212 108.070955, 184.25212 108.070955, 194.88205 86.81109500000001, 194.88205 86.81109500000001, 184.25212 65.551235, 184.25212 65.551235, 194.88205 55.71854975, 194.88205 55.71854975, 181.77180299999998 42.60830275, 181.77180299999998 42.60830275, 194.88205 32.7756175, 194.88205 32.7756175, 184.25212 0, 184.25212 0, 162.10643249999998 10.62993, 162.10643249999998 10.62993, 151.21075425 18.070881, 151.21075425 18.070881, 155.63989175 26.929156, 155.63989175 26.929156, 151.21075425 35.787431, 151.21075425 35.787431, 140.22649325 26.929156, 140.22649325 26.929156, 135.79735575 18.070881, 135.79735575 18.070881, 140.22649325 10.62993, 140.22649325 10.62993, 129.330815 0, 129.330815 0, 108.070955 10.62993, 108.070955 10.62993, 86.81109500000001 0, 86.81109500000001 0, 65.551235 10.62993, 65.551235 10.62993, 54.65555675 18.070881, 54.65555675 18.070881, 59.08469425 26.929156, 59.08469425 26.929156, 54.65555675 35.787431, 54.65555675 35.787431, 43.67129575 26.929156, 43.67129575 26.929156, 39.24215825 18.070881, 39.24215825 18.070881, 43.67129575 10.62993, 43.67129575 10.62993, 32.7756175 0, 32.7756175 "/> 
</g>
<!-- Top--> 
<g transform="translate(22.5000185, 217.3820685) " > 
<polygon style="stroke:#000000; fill:none; stroke-width:0.90000074" points="0, 10.62993 31.0039625, 10.62993 31.0039625, 0 39.95082025, 0 39.95082025, 13.110247000000001 53.06106725, 13.110247000000001 53.06106725, 0 62.007925, 0 62.007925, 10.62993 83.267785, 10.62993 83.267785, 0 104.527645, 0 104.527645, 10.62993 125.787505, 10.62993 125.787505, 0 147.047365, 0 147.047365, 10.62993 168.30722500000002, 10.62993 168.30722500000002, 0 189.567085, 0 189.567085, 10.62993 210.826945, 10.62993 210.826945, 0 232.086805, 0 232.086805, 10.62993 253.346665, 10.62993 253.346665, 0 274.60652500000003, 0 274.60652500000003, 10.62993 295.86638500000004, 10.62993 295.86638500000004, 0 317.126245, 0 317.126245, 10.62993 338.386105, 10.62993 338.386105, 0 359.645965, 0 359.645965, 10.62993 380.905825, 10.62993 380.905825, 0 402.165685, 0 402.165685, 10.62993 423.425545, 10.62993 423.425545, 0 444.685405, 0 444.685405, 10.62993 465.945265, 10.62993 465.945265, 0 487.205125, 0 487.205125, 10.62993 508.464985, 10.62993 508.464985, 0 529.724845, 0 529.724845, 10.62993 550.9847050000001, 10.62993 550.9847050000001, 0 572.244565, 0 572.244565, 10.62993 593.504425, 10.62993 593.504425, 0 602.4512827499999, 0 602.4512827499999, 13.110247000000001 615.56152975, 13.110247000000001 615.56152975, 0 624.5083875, 0 624.5083875, 10.62993 655.51235, 10.62993 655.51235, 32.7756175 644.88242, 32.7756175 644.88242, 43.67129575 637.441469, 43.67129575 637.441469, 39.24215825 628.583194, 39.24215825 628.583194, 43.67129575 619.724919, 43.67129575 619.724919, 54.65555675 628.583194, 54.65555675 628.583194, 59.08469425 637.441469, 59.08469425 637.441469, 54.65555675 644.88242, 54.65555675 644.88242, 65.551235 655.51235, 65.551235 655.51235, 86.81109500000001 644.88242, 86.81109500000001 644.88242, 108.070955 655.51235, 108.070955 655.51235, 129.330815 644.88242, 129.330815 644.88242, 150.590675 655.51235, 150.590675 655.51235, 171.850535 644.88242, 171.850535 644.88242, 193.11039499999998 655.51235, 193.11039499999998 655.51235, 214.370255 644.88242, 214.370255 644.88242, 235.630115 655.51235, 235.630115 655.51235, 256.889975 644.88242, 256.889975 644.88242, 278.149835 655.51235, 278.149835 655.51235, 299.409695 644.88242, 299.409695 644.88242, 320.669555 655.51235, 320.669555 655.51235, 341.929415 644.88242, 341.929415 644.88242, 352.82509325 637.441469, 352.82509325 637.441469, 348.39595575 628.583194, 348.39595575 628.583194, 352.82509325 619.724919, 352.82509325 619.724919, 363.80935424999996 628.583194, 363.80935424999996 628.583194, 368.23849175 637.441469, 368.23849175 637.441469, 363.80935424999996 644.88242, 363.80935424999996 644.88242, 374.7050325 655.51235, 374.7050325 655.51235, 396.85071999999997 624.5083875, 396.85071999999997 624.5083875, 407.48064999999997 615.56152975, 407.48064999999997 615.56152975, 394.37040299999995 602.4512827499999, 394.37040299999995 602.4512827499999, 407.48064999999997 593.504425, 407.48064999999997 593.504425, 396.85071999999997 572.244565, 396.85071999999997 572.244565, 407.48064999999997 550.9847050000001, 407.48064999999997 550.9847050000001, 396.85071999999997 529.724845, 396.85071999999997 529.724845, 407.48064999999997 508.464985, 407.48064999999997 508.464985, 396.85071999999997 487.205125, 396.85071999999997 487.205125, 407.48064999999997 465.945265, 407.48064999999997 465.945265, 396.85071999999997 444.685405, 396.85071999999997 444.685405, 407.48064999999997 423.425545, 407.48064999999997 423.425545, 396.85071999999997 402.165685, 396.85071999999997 402.165685, 407.48064999999997 380.905825, 407.48064999999997 380.905825, 396.85071999999997 359.645965, 396.85071999999997 359.645965, 407.48064999999997 338.386105, 407.48064999999997 338.386105, 396.85071999999997 317.126245, 396.85071999999997 317.126245, 407.48064999999997 295.86638500000004, 407.48064999999997 295.86638500000004, 396.85071999999997 274.60652500000003, 396.85071999999997 274.60652500000003, 407.48064999999997 253.346665, 407.48064999999997 253.346665, 396.85071999999997 232.086805, 396.85071999999997 232.086805, 407.48064999999997 210.826945, 407.48064999999997 210.826945, 396.85071999999997 189.567085, 396.85071999999997 189.567085, 407.48064999999997 168.30722500000002, 407.48064999999997 168.30722500000002, 396.85071999999997 147.047365, 396.85071999999997 147.047365, 407.48064999999997 125.787505, 407.48064999999997 125.787505, 396.85071999999997 104.527645, 396.85071999999997 104.527645, 407.48064999999997 83.267785, 407.48064999999997 83.267785, 396.85071999999997 62.007925, 396.85071999999997 62.007925, 407.48064999999997 53.06106725, 407.48064999999997 53.06106725, 394.37040299999995 39.95082025, 394.37040299999995 39.95082025, 407.48064999999997 31.0039625, 407.48064999999997 31.0039625, 396.85071999999997 0, 396.85071999999997 0, 374.7050325 10.62993, 374.7050325 10.62993, 363.80935424999996 18.070881, 363.80935424999996 18.070881, 368.23849175 26.929156, 368.23849175 26.929156, 363.80935424999996 35.787431, 363.80935424999996 35.787431, 352.82509325 26.929156, 352.82509325 26.929156, 348.39595575 18.070881, 348.39595575 18.070881, 352.82509325 10.62993, 352.82509325 10.62993, 341.929415 0, 341.929415 0, 320.669555 10.62993, 320.669555 10.62993, 299.409695 0, 299.409695 0, 278.149835 10.62993, 278.149835 10.62993, 256.889975 0, 256.889975 0, 235.630115 10.62993, 235.630115 10.62993, 214.370255 0, 214.370255 0, 193.11039499999998 10.62993, 193.11039499999998 10.62993, 171.850535 0, 171.850535 0, 150.590675 10.62993, 150.590675 10.62993, 129.330815 0, 129.330815 0, 108.070955 10.62993, 108.070955 10.62993, 86.81109500000001 0, 86.81109500000001 0, 65.551235 10.62993, 65.551235 10.62993, 54.65555675 18.070881, 54.65555675 18.070881, 59.08469425 26.929156, 59.08469425 26.929156, 54.65555675 35.787431, 54.65555675 35.787431, 43.67129575 26.929156, 43.67129575 26.929156, 39.24215825 18.070881, 39.24215825 18.070881, 43.67129575 10.62993, 43.67129575 10.62993, 32.7756175 0, 32.7756175 "/> 
</g>
<!-- Bottom--> 
<g transform="translate(678.0123685, 217.3820685) " > 
<polygon style="stroke:#000000; fill:none; stroke-width:0.90000074" points="0, 10.62993 31.0039625, 10.62993 31.0039625, 0 39.95082025, 0 39.95082025, 13.110247000000001 53.06106725, 13.110247000000001 53.06106725, 0 62.007925, 0 62.007925, 10.62993 83.267785, 10.62993 83.267785, 0 104.527645, 0 104.527645, 10.62993 125.787505, 10.62993 125.787505, 0 147.047365, 0 147.047365, 10.62993 168.30722500000002, 10.62993 168.30722500000002, 0 189.567085, 0 189.567085, 10.62993 210.826945, 10.62993 210.826945, 0 232.086805, 0 232.086805, 10.62993 253.346665, 10.62993 253.346665, 0 274.60652500000003, 0 274.60652500000003, 10.62993 295.86638500000004, 10.62993 295.86638500000004, 0 317.126245, 0 317.126245, 10.62993 338.386105, 10.62993 338.386105, 0 359.645965, 0 359.645965, 10.62993 380.905825, 10.62993 380.905825, 0 402.165685, 0 402.165685, 10.62993 423.425545, 10.62993 423.425545, 0 444.685405, 0 444.685405, 10.62993 465.945265, 10.62993 465.945265, 0 487.205125, 0 487.205125, 10.62993 508.464985, 10.62993 508.464985, 0 529.724845, 0 529.724845, 10.62993 550.9847050000001, 10.62993 550.9847050000001, 0 572.244565, 0 572.244565, 10.62993 593.504425, 10.62993 593.504425, 0 602.4512827499999, 0 602.4512827499999, 13.110247000000001 615.56152975, 13.110247000000001 615.56152975, 0 624.5083875, 0 624.5083875, 10.62993 655.51235, 10.62993 655.51235, 32.7756175 644.88242, 32.7756175 644.88242, 43.67129575 637.441469, 43.67129575 637.441469, 39.24215825 628.583194, 39.24215825 628.583194, 43.67129575 619.724919, 43.67129575 619.724919, 54.65555675 628.583194, 54.65555675 628.583194, 59.08469425 637.441469, 59.08469425 637.441469, 54.65555675 644.88242, 54.65555675 644.88242, 65.551235 655.51235, 65.551235 655.51235, 86.81109500000001 644.88242, 86.81109500000001 644.88242, 108.070955 655.51235, 108.070955 655.51235, 129.330815 644.88242, 129.330815 644.88242, 150.590675 655.51235, 150.590675 655.51235, 171.850535 644.88242, 171.850535 644.88242, 193.11039499999998 655.51235, 193.11039499999998 655.51235, 214.370255 644.88242, 214.370255 644.88242, 235.630115 655.51235, 235.630115 655.51235, 256.889975 644.88242, 256.889975 644.88242, 278.149835 655.51235, 278.149835 655.51235, 299.409695 644.88242, 299.409695 644.88242, 320.669555 655.51235, 320.669555 655.51235, 341.929415 644.88242, 341.929415 644.88242, 352.82509325 637.441469, 352.82509325 637.441469, 348.39595575 628.583194, 348.39595575 628.583194, 352.82509325 619.724919, 352.82509325 619.724919, 363.80935424999996 628.583194, 363.80935424999996 628.583194, 368.23849175 637.441469, 368.23849175 637.441469, 363.80935424999996 644.88242, 363.80935424999996 644.88242, 374.7050325 655.51235, 374.7050325 655.51235, 396.85071999999997 624.5083875, 396.85071999999997 624.5083875, 407.48064999999997 615.56152975, 407.48064999999997 615.56152975, 394.37040299999995 602.4512827499999, 394.37040299999995 602.4512827499999, 407.48064999999997 593.504425, 407.48064999999997 593.504425, 396.85071999999997 572.244565, 396.85071999999997 572.244565, 407.48064999999997 550.9847050000001, 407.48064999999997 550.9847050000001, 396.85071999999997 529.724845, 396.85071999999997 529.724845, 407.48064999999997 508.464985, 407.48064999999997 508.464985, 396.85071999999997 487.205125, 396.85071999999997 487.205125, 407.48064999999997 465.945265, 407.48064999999997 465.945265, 396.85071999999997 444.685405, 396.85071999999997 444.685405, 407.48064999999997 423.425545, 407.48064999999997 423.425545, 396.85071999999997 402.165685, 396.85071999999997 402.165685, 407.48064999999997 380.905825, 407.48064999999997 380.905825, 396.85071999999997 359.645965, 396.85071999999997 359.645965, 407.48064999999997 338.386105, 407.48064999999997 338.386105, 396.85071999999997 317.126245, 396.85071999999997 317.126245, 407.48064999999997 295.86638500000004, 407.48064999999997 295.86638500000004, 396.85071999999997 274.60652500000003, 396.85071999999997 274.60652500000003, 407.48064999999997 253.346665, 407.48064999999997 253.346665, 396.85071999999997 232.086805, 396.85071999999997 232.086805, 407.48064999999997 210.826945, 407.48064999999997 210.826945, 396.85071999999997 189.567085, 396.85071999999997 189.567085, 407.48064999999997 168.30722500000002, 407.48064999999997 168.30722500000002, 396.85071999999997 147.047365, 396.85071999999997 147.047365, 407.48064999999997 125.787505, 407.48064999999997 125.787505, 396.85071999999997 104.527645, 396.85071999999997 104.527645, 407.48064999999997 83.267785, 407.48064999999997 83.267785, 396.85071999999997 62.007925, 396.85071999999997 62.007925, 407.48064999999997 53.06106725, 407.48064999999997 53.06106725, 394.37040299999995 39.95082025, 394.37040299999995 39.95082025, 407.48064999999997 31.0039625, 407.48064999999997 31.0039625, 396.85071999999997 0, 396.85071999999997 0, 374.7050325 10.62993, 374.7050325 10.62993, 363.80935424999996 18.070881, 363.80935424999996 18.070881, 368.23849175 26.929156, 368.23849175 26.929156, 363.80935424999996 35.787431, 363.80935424999996 35.787431, 352.82509325 26.929156, 352.82509325 26.929156, 348.39595575 18.070881, 348.39595575 18.070881, 352.82509325 10.62993, 352.82509325 10.62993, 341.929415 0, 341.929415 0, 320.669555 10.62993, 320.669555 10.62993, 299.409695 0, 299.409695 0, 278.149835 10.62993, 278.149835 10.62993, 256.889975 0, 256.889975 0, 235.630115 10.62993, 235.630115 10.62993, 214.370255 0, 214.370255 0, 193.11039499999998 10.62993, 193.11039499999998 10.62993, 171.850535 0, 171.850535 0, 150.590675 10.62993, 150.590675 10.62993, 129.330815 0, 129.330815 0, 108.070955 10.62993, 108.070955 10.62993, 86.81109500000001 0, 86.81109500000001 0, 65.551235 10.62993, 65.551235 10.62993, 54.65555675 18.070881, 54.65555675 18.070881, 59.08469425 26.929156, 59.08469425 26.929156, 54.65555675 35.787431, 54.65555675 35.787431, 43.67129575 26.929156, 43.67129575 26.929156, 39.24215825 18.070881, 39.24215825 18.070881, 43.67129575 10.62993, 43.67129575 10.62993, 32.7756175 0, 32.7756175 "/> 
</g></svg>