<svg xmlns="http://www.w3.org/2000/svg" version="1.1" width="497.7mm" height="182.7mm" viewBox = " 0 0 1763.505387 647.3627369999999" >
<!-- Front--> 
<g transform="translate(22.5000185, 22.5000185) " > 
<polygon style="stroke:#000000; fill:none; stroke-width:0.90000074" points="0, 0 17.716549999999998, 0 17.716549999999998, 10.62993 35.433099999999996, 10.62993 35.433099999999996, 0 46.06303, 0 46.06303, 10.62993 56.69296, 10.62993 56.69296, 0 67.32289, 0 67.32289, 10.62993 77.95282, 10.62993 77.95282, 0 88.58275, 0 88.58275, 10.62993 99.21267999999999, 10.62993 99.21267999999999, 0 109.84261, 0 109.84261, 10.62993 120.47254, 10.62993 120.47254, 0 131.10246999999998, 0 131.10246999999998, 10.62993 141.73239999999998, 10.62993 141.73239999999998, 0 152.36233, 0 152.36233, 10.62993 162.99226, 10.62993 162.99226, 0 173.62219, 0 173.62219, 10.62993 184.25212, 10.62993 184.25212, 0 194.88205, 0 194.88205, 10.62993 205.51198, 10.62993 205.51198, 0 216.14191, 0 216.14191, 10.62993 226.77184, 10.62993 226.77184, 0 237.40177, 0 237.40177, 10.62993 248.0317, 10.62993 248.0317, 0 258.66163, 0 258.66163, 10.62993 269.29156, 10.62993 269.29156, 0 279.92149, 0 279.92149, 10.62993 290.55142, 10.62993 290.55142, 0 301.18134999999995, 0 301.18134999999995, 10.62993 311.81128, 10.62993 311.81128, 0 322.44120999999996, 0 322.44120999999996, 10.62993 333.07114, 10.62993 333.07114, 0 343.70106999999996, 0 343.70106999999996, 10.62993 354.331, 10.62993 354.331, 0 364.96092999999996, 0 364.96092999999996, 10.62993 375.59086, 10.62993 375.59086, 0 386.22078999999997, 0 386.22078999999997, 10.62993 396.85072, 10.62993 396.85072, 0 407.48064999999997, 0 407.48064999999997, 10.62993 418.11058, 10.62993 418.11058, 0 428.74051, 0 428.74051, 10.62993 439.37044000000003, 10.62993 439.37044000000003, 0 450.00037, 0 450.00037, 10.62993 460.63030000000003, 10.62993 460.63030000000003, 0 471.26023, 0 471.26023, 10.62993 481.89016000000004, 10.62993 481.89016000000004, 0 492.52009, 0 492.52009, 10.62993 503.15002000000004, 10.62993 503.15002000000004, 0 513.77995, 0 513.77995, 10.62993 524.40988, 10.62993 524.40988, 0 535.03981, 0 535.03981, 10.62993 545.6697399999999, 10.62993 545.6697399999999, 0 556.29967, 0 556.29967, 10.62993 566.9295999999999, 10.62993 566.9295999999999, 0 577.55953, 0 577.55953, 10.62993 588.1894599999999, 10.62993 588.1894599999999, 0 598.81939, 0 598.81939, 10.62993 609.44932, 10.62993 609.44932, 0 620.07925, 0 620.07925, 10.62993 637.7958, 10.62993 637.7958, 0 655.51235, 0 655.51235, 14.17324 644.88242, 14.17324 644.88242, 28.34648 655.51235, 28.34648 655.51235, 38.97641 644.88242, 38.97641 644.88242, 49.60634 655.51235, 49.60634 655.51235, 60.23627 644.88242, 60.23627 644.88242, 70.86619999999999 655.51235, 70.86619999999999 655.51235, 81.49613 644.88242, 81.49613 644.88242, 92.12606 655.51235, 92.12606 655.51235, 102.75599 644.88242, 102.75599 644.88242, 113.38592 655.51235, 113.38592 655.51235, 124.01585 644.88242, 124.01585 644.88242, 134.64578 655.51235, 134.64578 655.51235, 145.27571 644.88242, 145.27571 644.88242, 155.90564 655.51235, 155.90564 655.51235, 166.53557 644.88242, 166.53557 644.88242, 180.70881 655.51235, 180.70881 655.51235, 194.88205 637.7958, 194.88205 637.7958, 184.25212 620.07925, 184.25212 620.07925, 194.88205 609.44932, 194.88205 609.44932, 184.25212 598.81939, 184.25212 598.81939, 194.88205 588.1894599999999, 194.88205 588.1894599999999, 184.25212 577.55953, 184.25212 577.55953, 194.88205 566.9295999999999, 194.88205 566.9295999999999, 184.25212 556.29967, 184.25212 556.29967, 194.88205 545.6697399999999, 194.88205 545.6697399999999, 184.25212 535.03981, 184.25212 535.03981, 194.88205 524.40988, 194.88205 524.40988, 184.25212 513.77995, 184.25212 513.77995, 194.88205 503.15002000000004, 194.88205 503.15002000000004, 184.25212 492.52009, 184.25212 492.52009, 194.88205 481.89016000000004, 194.88205 481.89016000000004, 184.25212 471.26023, 184.25212 471.26023, 194.88205 460.63030000000003, 194.88205 460.63030000000003, 184.25212 450.00037, 184.25212 450.00037, 194.88205 439.37044000000003, 194.88205 439.37044000000003, 184.25212 428.74051, 184.25212 428.74051, 194.88205 418.11058, 194.88205 418.11058, 184.25212 407.48064999999997, 184.25212 407.48064999999997, 194.88205 396.85072, 194.88205 396.85072, 184.25212 386.22078999999997, 184.25212 386.22078999999997, 194.88205 375.59086, 194.88205 375.59086, 184.25212 364.96092999999996, 184.25212 364.96092999999996, 194.88205 354.331, 194.88205 354.331, 184.25212 343.70106999999996, 184.25212 343.70106999999996, 194.88205 333.07114, 194.88205 333.07114, 184.25212 322.44120999999996, 184.25212 322.44120999999996, 194.88205 311.81128, 194.88205 311.81128, 184.25212 301.18134999999995, 184.25212 301.18134999999995, 194.88205 290.55142, 194.88205 290.55142, 184.25212 279.92149, 184.25212 279.92149, 194.88205 269.29156, 194.88205 269.29156, 184.25212 258.66163, 184.25212 258.66163, 194.88205 248.0317, 194.88205 248.0317, 184.25212 237.40177, 184.25212 237.40177, 194.88205 226.77184, 194.88205 226.77184, 184.25212 216.14191, 184.25212 216.14191, 194.88205 205.51198, 194.88205 205.51198, 184.25212 194.88205, 184.25212 194.88205, 194.88205 184.25212, 194.88205 184.25212, 184.25212 173.62219, 184.25212 173.62219, 194.88205 162.99226, 194.88205 162.99226, 184.25212 152.36233, 184.25212 152.36233, 194.88205 141.73239999999998, 194.88205 141.73239999999998, 184.25212 131.10246999999998, 184.25212 131.10246999999998, 194.88205 120.47254, 194.88205 120.47254, 184.25212 109.84261, 184.25212 109.84261, 194.88205 99.21267999999999, 194.88205 99.21267999999999, 184.25212 88.58275, 184.25212 88.58275, 194.88205 77.95282, 194.88205 77.95282, 184.25212 67.32289, 184.25212 67.32289, 194.88205 56.69296, 194.88205 56.69296, 184.25212 46.06303, 184.25212 46.06303, 194.88205 35.433099999999996, 194.88205 35.433099999999996, 184.25212 17.716549999999998, 184.25212 17.716549999999998, 194.88205 0, 194.88205 0, 180.70881 10.62993, 180.70881 10.62993, 166.53557 0, 166.53557 0, 155.90564 10.62993, 155.90564 10.62993, 145.27571 0, 145.27571 0, 134.64578 10.62993, 134.64578 10.62993, 124.01585 0, 124.01585 0, 113.38592 10.62993, 113.38592 10.62993, 102.75599 0, 102.75599 0, 92.12606 10.62993, 92.12606 10.62993, 81.49613 0, 81.49613 0, 70.86619999999999 10.62993, 70.86619999999999 10.62993, 60.23627 0, 60.23627 0, 49.60634 10.62993, 49.60634 10.62993, 38.97641 0, 38.97641 0, 28.34648 10.62993, 28.34648 10.62993, 14.17324 0, 14.17324 "/> 
</g>
<!-- Back--> 
<g transform="translate(678.0123685, 22.5000185) " > 
<polygon style="stroke:#000000; fill:none; stroke-width:0.90000074" points="0, 0 17.716549999999998, 0 17.716549999999998, 10.62993 35.433099999999996, 10.62993 35.433099999999996, 0 46.06303, 0 46.06303, 10.62993 56.69296, 10.62993 56.69296, 0 67.32289, 0 67.32289, 10.62993 77.95282, 10.62993 77.95282, 0 88.58275, 0 88.58275, 10.62993 99.21267999999999, 10.62993 99.21267999999999, 0 109.84261, 0 109.84261, 10.62993 120.47254, 10.62993 120.47254, 0 131.10246999999998, 0 131.10246999999998, 10.62993 141.73239999999998, 10.62993 141.73239999999998, 0 152.36233, 0 152.36233, 10.62993 162.99226, 10.62993 162.99226, 0 173.62219, 0 173.62219, 10.62993 184.25212, 10.62993 184.25212, 0 194.88205, 0 194.88205, 10.62993 205.51198, 10.62993 205.51198, 0 216.14191, 0 216.14191, 10.62993 226.77184, 10.62993 226.77184, 0 237.40177, 0 237.40177, 10.62993 248.0317, 10.62993 248.0317, 0 258.66163, 0 258.66163, 10.62993 269.29156, 10.62993 269.29156, 0 279.92149, 0 279.92149, 10.62993 290.55142, 10.62993 290.55142, 0 301.18134999999995, 0 301.18134999999995, 10.62993 311.81128, 10.62993 311.81128, 0 322.44120999999996, 0 322.44120999999996, 10.62993 333.07114, 10.62993 333.07114, 0 343.70106999999996, 0 343.70106999999996, 10.62993 354.331, 10.62993 354.331, 0 364.96092999999996, 0 364.96092999999996, 10.62993 375.59086, 10.62993 375.59086, 0 386.22078999999997, 0 386.22078999999997, 10.62993 396.85072, 10.62993 396.85072, 0 407.48064999999997, 0 407.48064999999997, 10.62993 418.11058, 10.62993 418.11058, 0 428.74051, 0 428.74051, 10.62993 439.37044000000003, 10.62993 439.37044000000003, 0 450.00037, 0 450.00037, 10.62993 460.63030000000003, 10.62993 460.63030000000003, 0 471.26023, 0 471.26023, 10.62993 481.89016000000004, 10.62993 481.89016000000004, 0 492.52009, 0 492.52009, 10.62993 503.15002000000004, 10.62993 503.15002000000004, 0 513.77995, 0 513.77995, 10.62993 524.40988, 10.62993 524.40988, 0 535.03981, 0 535.03981, 10.62993 545.6697399999999, 10.62993 545.6697399999999, 0 556.29967, 0 556.29967, 10.62993 566.9295999999999, 10.62993 566.9295999999999, 0 577.55953, 0 577.55953, 10.62993 588.1894599999999, 10.62993 588.1894599999999, 0 598.81939, 0 598.81939, 10.62993 609.44932, 10.62993 609.44932, 0 620.07925, 0 620.07925, 10.62993 637.7958, 10.62993 637.7958, 0 655.51235, 0 655.51235, 14.17324 644.88242, 14.17324 644.88242, 28.34648 655.51235, 28.34648 655.51235, 38.97641 644.88242, 38.97641 644.88242, 49.60634 655.51235, 49.60634 655.51235, 60.23627 644.88242, 60.23627 644.88242, 70.86619999999999 655.51235, 70.86619999999999 655.51235, 81.49613 644.88242, 81.49613 644.88242, 92.12606 655.51235, 92.12606 655.51235, 102.75599 644.88242, 102.75599 644.88242, 113.38592 655.51235, 113.38592 655.51235, 124.01585 644.88242, 124.01585 644.88242, 134.64578 655.51235, 134.64578 655.51235, 145.27571 644.88242, 145.27571 644.88242, 155.90564 655.51235, 155.90564 655.51235, 166.53557 644.88242, 166.53557 644.88242, 180.70881 655.51235, 180.70881 655.51235, 194.88205 637.7958, 194.88205 637.7958, 184.25212 620.07925, 184.25212 620.07925, 194.88205 609.44932, 194.88205 609.44932, 184.25212 598.81939, 184.25212 598.81939, 194.88205 588.1894599999999, 194.88205 588.1894599999999, 184.25212 577.55953, 184.25212 577.55953, 194.88205 566.9295999999999, 194.88205 566.9295999999999, 184.25212 556.29967, 184.25212 556.29967, 194.88205 545.6697399999999, 194.88205 545.6697399999999, 184.25212 535.03981, 184.25212 535.03981, 194.88205 524.40988, 194.88205 524.40988, 184.25212 513.77995, 184.25212 513.77995, 194.88205 503.15002000000004, 194.88205 503.15002000000004, 184.25212 492.52009, 184.25212 492.52009, 194.88205 481.89016000000004, 194.88205 481.89016000000004, 184.25212 471.26023, 184.25212 471.26023, 194.88205 460.63030000000003, 194.88205 460.63030000000003, 184.25212 450.00037, 184.25212 450.00037, 194.88205 439.37044000000003, 194.88205 439.37044000000003, 184.25212 428.74051, 184.25212 428.74051, 194.88205 418.11058, 194.88205 418.11058, 184.25212 407.48064999999997, 184.25212 407.48064999999997, 194.88205 396.85072, 194.88205 396.85072, 184.25212 386.22078999999997, 184.25212 386.22078999999997, 194.88205 375.59086, 194.88205 375.59086, 184.25212 364.96092999999996, 184.25212 364.96092999999996, 194.88205 354.331, 194.88205 354.331, 184.25212 343.70106999999996, 184.25212 343.70106999999996, 194.88205 333.07114, 194.88205 333.07114, 184.25212 322.44120999999996, 184.25212 322.44120999999996, 194.88205 311.81128, 194.88205 311.81128, 184.25212 301.18134999999995, 184.25212 301.18134999999995, 194.88205 290.55142, 194.88205 290.55142, 184.25212 279.92149, 184.25212 279.92149, 194.88205 269.29156, 194.88205 269.29156, 184.25212 258.66163, 184.25212 258.66163, 194.88205 248.0317, 194.88205 248.0317, 184.25212 237.40177, 184.25212 237.40177, 194.88205 226.77184, 194.88205 226.77184, 184.25212 216.14191, 184.25212 216.14191, 194.88205 205.51198, 194.88205 205.51198, 184.25212 194.88205, 184.25212 194.88205, 194.88205 184.25212, 194.88205 184.25212, 184.25212 173.62219, 184.25212 173.62219, 194.88205 162.99226, 194.88205 162.99226, 184.25212 152.36233, 184.25212 152.36233, 194.88205 141.73239999999998, 194.88205 141.73239999999998, 184.25212 131.10246999999998, 184.25212 131.10246999999998, 194.88205 120.47254, 194.88205 120.47254, 184.25212 109.84261, 184.25212 109.84261, 194.88205 99.21267999999999, 194.88205 99.21267999999999, 184.25212 88.58275, 184.25212 88.58275, 194.88205 77.95282, 194.88205 77.95282, 184.25212 67.32289, 184.25212 67.32289, 194.88205 56.69296, 194.88205 56.69296, 184.25212 46.06303, 184.25212 46.06303, 194.88205 35.433099999999996, 194.88205 35.433099999999996, 184.25212 17.716549999999998, 184.25212 17.716549999999998, 194.88205 0, 194.88205 0, 180.70881 10.62993, 180.70881 10.62993, 166.53557 0, 166.53557 0, 155.90564 10.62993, 155.90564 10.62993, 145.27571 0, 145.27571 0, 134.64578 10.62993, 134.64578 10.62993, 124.01585 0, 124.01585 0, 113.38592 10.62993, 113.38592 10.62993, 102.75599 0, 102.75599 0, 92.12606 10.62993, 92.12606 10.62993, 81.49613 0, 81.49613 0, 70.86619999999999 10.62993, 70.86619999999999 10.62993, 60.23627 0, 60.23627 0, 49.60634 10.62993, 49.60634 10.62993, 38.97641 0, 38.97641 0, 28.34648 10.62993, 28.34648 10.62993, 14.17324 0, 14.17324 "/> 
</g>
<!-- Left--> 
<g transform="translate(1333.5247185, 22.5000185) " > 
<polygon style="stroke:#000000; fill:none; stroke-width:0.90000074" points="10.62993, 0 14.17324, 0 14.17324, 10.62993 28.34648, 10.62993 28.34648, 0 38.97641, 0 38.97641, 10.62993 49.60634, 10.62993 49.60634, 0 60.23627, 0 60.23627, 10.62993 70.86619999999999, 10.62993 70.86619999999999, 0 81.49613, 0 81.49613, 10.62993 92.12606, 10.62993 92.12606, 0 102.75599, 0 102.75599, 10.62993 113.38592, 10.62993 113.38592, 0 124.01585, 0 124.01585, 10.62993 134.64578, 10.62993 134.64578, 0 145.27571, 0 145.27571, 10.62993 155.90564, 10.62993 155.90564, 0 166.53557, 0 166.53557, 10.62993 177.1655, 10.62993 177.1655, 0 187.79543, 0 187.79543, 10.62993 198.42536, 10.62993 198.42536, 0 209.05529, 0 209.05529, 10.62993 219.68522000000002, 10.62993 219.68522000000002, 0 230.31515000000002, 0 230.31515000000002, 10.62993 240.94508000000002, 10.62993 240.94508000000002, 0 251.57501000000002, 0 251.57501000000002, 10.62993 262.20494, 10.62993 262.20494, 0 272.83487, 0 272.83487, 10.62993 283.46479999999997, 10.62993 283.46479999999997, 0 294.09472999999997, 0 294.09472999999997, 10.62993 304.72466, 10.62993 304.72466, 0 315.35459, 0 315.35459, 10.62993 325.98452, 10.62993 325.98452, 0 336.61445, 0 336.61445, 10.62993 347.24438, 10.62993 347.24438, 0 357.87431, 0 357.87431, 10.62993 368.50424, 10.62993 368.50424, 0 379.13417, 0 379.13417, 10.62993 393.30741, 10.62993 393.30741, 0 396.85071999999997, 0 396.85071999999997, 14.17324 407.48064999999997, 14.17324 407.48064999999997, 28.34648 396.85071999999997, 28.34648 396.85071999999997, 38.97641 407.48064999999997, 38.97641 407.48064999999997, 49.60634 396.85071999999997, 49.60634 396.85071999999997, 60.23627 407.48064999999997, 60.23627 407.48064999999997, 70.86619999999999 396.85071999999997, 70.86619999999999 396.85071999999997, 81.49613 407.48064999999997, 81.49613 407.48064999999997, 92.12606 396.85071999999997, 92.12606 396.85071999999997, 102.75599 407.48064999999997, 102.75599 407.48064999999997, 113.38592 396.85071999999997, 113.38592 396.85071999999997, 124.01585 407.48064999999997, 124.01585 407.48064999999997, 134.64578 396.85071999999997, 134.64578 396.85071999999997, 145.27571 407.48064999999997, 145.27571 407.48064999999997, 155.90564 396.85071999999997, 155.90564 396.85071999999997, 166.53557 407.48064999999997, 166.53557 407.48064999999997, 180.70881 396.85071999999997, 180.70881 396.85071999999997, 194.88205 393.30741, 194.88205 393.30741, 184.25212 379.13417, 184.25212 379.13417, 194.88205 368.50424, 194.88205 368.50424, 184.25212 357.87431, 184.25212 357.87431, 194.88205 347.24438, 194.88205 347.24438, 184.25212 336.61445, 184.25212 336.61445, 194.88205 325.98452, 194.88205 325.98452, 184.25212 315.35459, 184.25212 315.35459, 194.88205 304.72466, 194.88205 304.72466, 184.25212 294.09472999999997, 184.25212 294.09472999999997, 194.88205 283.46479999999997, 194.88205 283.46479999999997, 184.25212 272.83487, 184.25212 272.83487, 194.88205 262.20494, 194.88205 262.20494, 184.25212 251.57501000000002, 184.25212 251.57501000000002, 194.88205 240.94508000000002, 194.88205 240.94508000000002, 184.25212 230.31515000000002, 184.25212 230.31515000000002, 194.88205 219.68522000000002, 194.88205 219.68522000000002, 184.25212 209.05529, 184.25212 209.05529, 194.88205 198.42536, 194.88205 198.42536, 184.25212 187.79543, 184.25212 187.79543, 194.88205 177.1655, 194.88205 177.1655, 184.25212 166.53557, 184.25212 166.53557, 194.88205 155.90564, 194.88205 155.90564, 184.25212 145.27571, 184.25212 145.27571, 194.88205 134.64578, 194.88205 134.64578, 184.25212 124.01585, 184.25212 124.01585, 194.88205 113.38592, 194.88205 113.38592, 184.25212 102.75599, 184.25212 102.75599, 194.88205 92.12606, 194.88205 92.12606, 184.25212 81.49613, 184.25212 81.49613, 194.88205 70.86619999999999, 194.88205 70.86619999999999, 184.25212 60.23627, 184.25212 60.23627, 194.88205 49.60634, 194.88205 49.60634, 184.25212 38.97641, 184.25212 38.97641, 194.88205 28.34648, 194.88205 28.34648, 184.25212 14.17324, 184.25212 14.17324, 194.88205 10.62993, 194.88205 10.62993, 180.70881 0, 180.70881 0, 166.53557 10.62993, 166.53557 10.62993, 155.90564 0, 155.90564 0, 145.27571 10.62993, 145.27571 10.62993, 134.64578 0, 134.64578 0, 124.01585 10.62993, 124.01585 10.62993, 113.38592 0, 113.38592 0, 102.75599 10.62993, 102.75599 10.62993, 92.12606 0, 92.12606 0, 81.49613 10.62993, 81.49613 10.62993, 70.86619999999999 0, 70.86619999999999 0, 60.23627 10.62993, 60.23627 10.62993, 49.60634 0, 49.60634 0, 38.97641 10.62993, 38.97641 10.62993, 28.34648 0, 28.34648 0, 14.17324 10.62993, 14.17324 "/> 
</g>
<!-- Right--> 
<g transform="translate(1333.5247185, 217.3820685) " > 
<polygon style="stroke:#000000; fill:none; stroke-width:0.90000074" points="10.62993, 0 14.17324, 0 14.17324, 10.62993 28.34648, 10.62993 28.34648, 0 38.97641, 0 38.97641, 10.62993 49.60634, 10.62993 49.60634, 0 60.23627, 0 60.23627, 10.62993 70.86619999999999, 10.62993 70.86619999999999, 0 81.49613, 0 81.49613, 10.62993 92.12606, 10.62993 92.12606, 0 102.75599, 0 102.75599, 10.62993 113.38592, 10.62993 113.38592, 0 124.01585, 0 124.01585, 10.62993 134.64578, 10.62993 134.64578, 0 145.27571, 0 145.27571, 10.62993 155.90564, 10.62993 155.90564, 0 166.53557, 0 166.53557, 10.62993 177.1655, 10.62993 177.1655, 0 187.79543, 0 187.79543, 10.62993 198.42536, 10.62993 198.42536, 0 209.05529, 0 209.05529, 10.62993 219.68522000000002, 10.62993 219.68522000000002, 0 230.31515000000002, 0 230.31515000000002, 10.62993 240.94508000000002, 10.62993 240.94508000000002, 0 251.57501000000002, 0 251.57501000000002, 10.62993 262.20494, 10.62993 262.20494, 0 272.83487, 0 272.83487, 10.62993 283.46479999999997, 10.62993 283.46479999999997, 0 294.09472999999997, 0 294.09472999999997, 10.62993 304.72466, 10.62993 304.72466, 0 315.35459, 0 315.35459, 10.62993 325.98452, 10.62993 325.98452, 0 336.61445, 0 336.61445, 10.62993 347.24438, 10.62993 347.24438, 0 357.87431, 0 357.87431, 10.62993 368.50424, 10.62993 368.50424, 0 379.13417, 0 379.13417, 10.62993 393.30741, 10.62993 393.30741, 0 396.85071999999997, 0 396.85071999999997, 14.17324 407.48064999999997, 14.17324 407.48064999999997, 28.34648 396.85071999999997, 28.34648 396.85071999999997, 38.97641 407.48064999999997, 38.97641 407.48064999999997, 49.60634 396.85071999999997, 49.60634 396.85071999999997, 60.23627 407.48064999999997, 60.23627 407.48064999999997, 70.86619999999999 396.85071999999997, 70.86619999999999 396.85071999999997, 81.49613 407.48064999999997, 81.49613 407.48064999999997, 92.12606 396.85071999999997, 92.12606 396.85071999999997, 102.75599 407.48064999999997, 102.75599 407.48064999999997, 113.38592 396.85071999999997, 113.38592 396.85071999999997, 124.01585 407.48064999999997, 124.01585 407.48064999999997, 134.64578 396.85071999999997, 134.64578 396.85071999999997, 145.27571 407.48064999999997, 145.27571 407.48064999999997, 155.90564 396.85071999999997, 155.90564 396.85071999999997, 166.53557 407.48064999999997, 166.53557 407.48064999999997, 180.70881 396.85071999999997, 180.70881 396.85071999999997, 194.88205 393.30741, 194.88205 393.30741, 184.25212 379.13417, 184.25212 379.13417, 194.88205 368.50424, 194.88205 368.50424, 184.25212 357.87431, 184.25212 357.87431, 194.88205 347.24438, 194.88205 347.24438, 184.25212 336.61445, 184.25212 336.61445, 194.88205 325.98452, 194.88205 325.98452, 184.25212 315.35459, 184.25212 315.35459, 194.88205 304.72466, 194.88205 304.72466, 184.25212 294.09472999999997, 184.25212 294.09472999999997, 194.88205 283.46479999999997, 194.88205 283.46479999999997, 184.25212 272.83487, 184.25212 272.83487, 194.88205 262.20494, 194.88205 262.20494, 184.25212 251.57501000000002, 184.25212 251.57501000000002, 194.88205 240.94508000000002, 194.88205 240.94508000000002, 184.25212 230.31515000000002, 184.25212 230.31515000000002, 194.88205 219.68522000000002, 194.88205 219.68522000000002, 184.25212 209.05529, 184.25212 209.05529, 194.88205 198.42536, 194.88205 198.42536, 184.25212 187.79543, 184.25212 187.79543, 194.88205 177.1655, 194.88205 177.1655, 184.25212 166.53557, 184.25212 166.53557, 194.88205 155.90564, 194.88205 155.90564, 184.25212 145.27571, 184.25212 145.27571, 194.88205 134.64578, 194.88205 134.64578, 184.25212 124.01585, 184.25212 124.01585, 194.88205 113.38592, 194.88205 113.38592, 184.25212 102.75599, 184.25212 102.75599, 194.88205 92.12606, 194.88205 92.12606, 184.25212 81.49613, 184.25212 81.49613, 194.88205 70.86619999999999, 194.88205 70.86619999999999, 184.25212 60.23627, 184.25212 60.23627, 194.88205 49.60634, 194.88205 49.60634, 184.25212 38.97641, 184.25212 38.97641, 194.88205 28.34648, 194.88205 28.34648, 184.25212 14.17324, 184.25212 14.17324, 194.88205 10.62993, 194.88205 10.62993, 180.70881 0, 180.70881 0, 166.53557 10.62993, 166.53557 10.62993, 155.90564 0, 155.90564 0, 145.27571 10.62993, 145.27571 10.62993, 134.64578 0, 134.64578 0, 124.01585 10.62993, 124.01585 10.62993, 113.38592 0, 113.38592 0, 102.75599 10.62993, 102.75599 10.62993, 92.12606 0, 92.12606 0, 81.49613 10.62993, 81.49613 10.62993, 70.86619999999999 0, 70.86619999999999 0, 60.23627 10.62993, 60.23627 10.62993, 49.60634 0, 49.60634 0, 38.97641 10.62993, 38.97641 10.62993, 28.34648 0, 28.34648 0, 14.17324 10.62993, 14.17324 "/> 
</g>
<!-- Top--> 
<g transform="translate(22.5000185, 217.3820685) " > 
<polygon style="stroke:#000000; fill:none; stroke-width:0.90000074" points="10.62993, 10.62993 17.716549999999998, 10.62993 17.716549999999998, 0 35.433099999999996, 0 35.433099999999996, 10.62993 46.06303, 10.62993 46.06303, 0 56.69296, 0 56.69296, 10.62993 67.32289, 10.62993 67.32289, 0 77.95282, 0 77.95282, 10.62993 88.58275, 10.62993 88.58275, 0 99.21267999999999, 0 99.21267999999999, 10.62993 109.84261, 10.62993 109.84261, 0 120.47254, 0 120.47254, 10.62993 131.10246999999998, 10.62993 131.10246999999998, 0 141.73239999999998, 0 141.73239999999998, 10.62993 152.36233, 10.62993 152.36233, 0 162.99226, 0 162.99226, 10.62993 173.62219, 10.62993 173.62219, 0 184.25212, 0 184.25212, 10.62993 194.88205, 10.62993 194.88205, 0 205.51198, 0 205.51198, 10.62993 216.14191, 10.62993 216.14191, 0 226.77184, 0 226.77184, 10.62993 237.40177, 10.62993 237.40177, 0 248.0317, 0 248.0317, 10.62993 258.66163, 10.62993 258.66163, 0 269.29156, 0 269.29156, 10.62993 279.92149, 10.62993 279.92149, 0 290.55142, 0 290.55142, 10.62993 301.18134999999995, 10.62993 301.18134999999995, 0 311.81128, 0 311.81128, 10.62993 322.44120999999996, 10.62993 322.44120999999996, 0 333.07114, 0 333.07114, 10.62993 343.70106999999996, 10.62993 343.70106999999996, 0 354.331, 0 354.331, 10.62993 364.96092999999996, 10.62993 364.96092999999996, 0 375.59086, 0 375.59086, 10.62993 386.22078999999997, 10.62993 386.22078999999997, 0 396.85072, 0 396.85072, 10.62993 407.48064999999997, 10.62993 407.48064999999997, 0 418.11058, 0 418.11058, 10.62993 428.74051, 10.62993 428.74051, 0 439.37044000000003, 0 439.37044000000003, 10.62993 450.00037, 10.62993 450.00037, 0 460.63030000000003, 0 460.63030000000003, 10.62993 471.26023, 10.62993 471.26023, 0 481.89016000000004, 0 481.89016000000004, 10.62993 492.52009, 10.62993 492.52009, 0 503.15002000000004, 0 503.15002000000004, 10.62993 513.77995, 10.62993 513.77995, 0 524.40988, 0 524.40988, 10.62993 535.03981, 10.62993 535.03981, 0 545.6697399999999, 0 545.6697399999999, 10.62993 556.29967, 10.62993 556.29967, 0 566.9295999999999, 0 566.9295999999999, 10.62993 577.55953, 10.62993 577.55953, 0 588.1894599999999, 0 588.1894599999999, 10.62993 598.81939, 10.62993 598.81939, 0 609.44932, 0 609.44932, 10.62993 620.07925, 10.62993 620.07925, 0 637.7958, 0 637.7958, 10.62993 644.88242, 10.62993 644.88242, 14.17324 655.51235, 14.17324 655.51235, 28.34648 644.88242, 28.34648 644.88242, 38.97641 655.51235, 38.97641 655.51235, 49.60634 644.88242, 49.60634 644.88242, 60.23627 655.51235, 60.23627 655.51235, 70.86619999999999 644.88242, 70.86619999999999 644.88242, 81.49613 655.51235, 81.49613 655.51235, 92.12606 644.88242, 92.12606 644.88242, 102.75599 655.51235, 102.75599 655.51235, 113.38592 644.88242, 113.38592 644.88242, 124.01585 655.51235, 124.01585 655.51235, 134.64578 644.88242, 134.64578 644.88242, 145.27571 655.51235, 145.27571 655.51235, 155.90564 644.88242, 155.90564 644.88242, 166.53557 655.51235, 166.53557 655.51235, 177.1655 644.88242, 177.1655 644.88242, 187.79543 655.51235, 187.79543 655.51235, 198.42536 644.88242, 198.42536 644.88242, 209.05529 655.51235, 209.05529 655.51235, 219.68522000000002 644.88242, 219.68522000000002 644.88242, 230.31515000000002 655.51235, 230.31515000000002 655.51235, 240.94508000000002 644.88242, 240.94508000000002 644.88242, 251.57501000000002 655.51235, 251.57501000000002 655.51235, 262.20494 644.88242, 262.20494 644.88242, 272.83487 655.51235, 272.83487 655.51235, 283.46479999999997 644.88242, 283.46479999999997 644.88242, 294.09472999999997 655.51235, 294.09472999999997 655.51235, 304.72466 644.88242, 304.72466 644.88242, 315.35459 655.51235, 315.35459 655.51235, 325.98452 644.88242, 325.98452 644.88242, 336.61445 655.51235, 336.61445 655.51235, 347.24438 644.88242, 347.24438 644.88242, 357.87431 655.51235, 357.87431 655.51235, 368.50424 644.88242, 368.50424 644.88242, 379.13417 655.51235, 379.13417 655.51235, 393.30741 644.88242, 393.30741 644.88242, 396.85071999999997 637.7958, 396.85071999999997 637.7958, 407.48064999999997 620.07925, 407.48064999999997 620.07925, 396.85071999999997 609.44932, 396.85071999999997 609.44932, 407.48064999999997 598.81939, 407.48064999999997 598.81939, 396.85071999999997 588.1894599999999, 396.85071999999997 588.1894599999999, 407.48064999999997 577.55953, 407.48064999999997 577.55953, 396.85071999999997 566.9295999999999, 396.85071999999997 566.9295999999999, 407.48064999999997 556.29967, 407.48064999999997 556.29967, 396.85071999999997 545.6697399999999, 396.85071999999997 545.6697399999999, 407.48064999999997 535.03981, 407.48064999999997 535.03981, 396.85071999999997 524.40988, 396.85071999999997 524.40988, 407.48064999999997 513.77995, 407.48064999999997 513.77995, 396.85071999999997 503.15002000000004, 396.85071999999997 503.15002000000004, 407.48064999999997 492.52009, 407.48064999999997 492.52009, 396.85071999999997 481.89016000000004, 396.85071999999997 481.89016000000004, 407.48064999999997 471.26023, 407.48064999999997 471.26023, 396.85071999999997 460.63030000000003, 396.85071999999997 460.63030000000003, 407.48064999999997 450.00037, 407.48064999999997 450.00037, 396.85071999999997 439.37044000000003, 396.85071999999997 439.37044000000003, 407.48064999999997 428.74051, 407.48064999999997 428.74051, 396.85071999999997 418.11058, 396.85071999999997 418.11058, 407.48064999999997 407.48064999999997, 407.48064999999997 407.48064999999997, 396.85071999999997 396.85072, 396.85071999999997 396.85072, 407.48064999999997 386.22078999999997, 407.48064999999997 386.22078999999997, 396.85071999999997 375.59086, 396.85071999999997 375.59086, 407.48064999999997 364.96092999999996, 407.48064999999997 364.96092999999996, 396.85071999999997 354.331, 396.85071999999997 354.331, 407.48064999999997 343.70106999999996, 407.48064999999997 343.70106999999996, 396.85071999999997 333.07114, 396.85071999999997 333.07114, 407.48064999999997 322.44120999999996, 407.48064999999997 322.44120999999996, 396.85071999999997 311.81128, 396.85071999999997 311.81128, 407.48064999999997 301.18134999999995, 407.48064999999997 301.18134999999995, 396.85071999999997 290.55142, 396.85071999999997 290.55142, 407.48064999999997 279.92149, 407.48064999999997 279.92149, 396.85071999999997 269.29156, 396.85071999999997 269.29156, 407.48064999999997 258.66163, 407.48064999999997 258.66163, 396.85071999999997 248.0317, 396.85071999999997 248.0317, 407.48064999999997 237.40177, 407.48064999999997 237.40177, 396.85071999999997 226.77184, 396.85071999999997 226.77184, 407.48064999999997 216.14191, 407.48064999999997 216.14191, 396.85071999999997 205.51198, 396.85071999999997 205.51198, 407.48064999999997 194.88205, 407.48064999999997 194.88205, 396.85071999999997 184.25212, 396.85071999999997 184.25212, 407.48064999999997 173.62219, 407.48064999999997 173.62219, 396.85071999999997 162.99226, 396.85071999999997 162.99226, 407.48064999999997 152.36233, 407.48064999999997 152.36233, 396.85071999999997 141.73239999999998, 396.85071999999997 141.73239999999998, 407.48064999999997 131.10246999999998, 407.48064999999997 131.10246999999998, 396.85071999999997 120.47254, 396.85071999999997 120.47254, 407.48064999999997 109.84261, 407.48064999999997 109.84261, 396.85071999999997 99.21267999999999, 396.85071999999997 99.21267999999999, 407.48064999999997 88.58275, 407.48064999999997 88.58275, 396.85071999999997 77.95282, 396.85071999999997 77.95282, 407.48064999999997 67.32289, 407.48064999999997 67.32289, 396.85071999999997 56.69296, 396.85071999999997 56.69296, 407.48064999999997 46.06303, 407.48064999999997 46.06303, 396.85071999999997 35.433099999999996, 396.85071999999997 35.433099999999996, 407.48064999999997 17.716549999999998, 407.48064999999997 17.716549999999998, 396.85071999999997 10.62993, 396.85071999999997 10.62993, 393.30741 0, 393.30741 0, 379.13417 10.62993, 379.13417 10.62993, 368.50424 0, 368.50424 0, 357.87431 10.62993, 357.87431 10.62993, 347.24438 0, 347.24438 0, 336.61445 10.62993, 336.61445 10.62993, 325.98452 0, 325.98452 0, 315.35459 10.62993, 315.35459 10.62993, 304.72466 0, 304.72466 0, 294.09472999999997 10.62993, 294.09472999999997 10.62993, 283.46479999999997 0, 283.46479999999997 0, 272.83487 10.62993, 272.83487 10.62993, 262.20494 0, 262.20494 0, 251.57501000000002 10.62993, 251.57501000000002 10.62993, 240.94508000000002 0, 240.94508000000002 0, 230.31515000000002 10.62993, 230.31515000000002 10.62993, 219.68522000000002 0, 219.68522000000002 0, 209.05529 10.62993, 209.05529 10.62993, 198.42536 0, 198.42536 0, 187.79543 10.62993, 187.79543 10.62993, 177.1655 0, 177.1655 0, 166.53557 10.62993, 166.53557 10.62993, 155.90564 0, 155.90564 0, 145.27571 10.62993, 145.27571 10.62993, 134.64578 0, 134.64578 0, 124.01585 10.62993, 124.01585 10.62993, 113.38592 0, 113.38592 0, 102.75599 10.62993, 102.75599 10.62993, 92.12606 0, 92.12606 0, 81.49613 10.62993, 81.49613 10.62993, 70.86619999999999 0, 70.86619999999999 0, 60.23627 10.62993, 60.23627 10.62993, 49.60634 0, 49.60634 0, 38.97641 10.62993, 38.97641 10.62993, 28.34648 0, 28.34648 0, 14.17324 10.62993, 14.17324 "/> 
</g>
<!-- Bottom--> 
<g transform="translate(678.0123685, 217.3820685) " > 
<polygon style="stroke:#000000; fill:none; stroke-width:0.90000074" points="10.62993, 10.62993 17.716549999999998, 10.62993 17.716549999999998, 0 35.433099999999996, 0 35.433099999999996, 10.62993 46.06303, 10.62993 46.06303, 0 56.69296, 0 56.69296, 10.62993 67.32289, 10.62993 67.32289, 0 77.95282, 0 77.95282, 10.62993 88.58275, 10.62993 88.58275, 0 99.21267999999999, 0 99.21267999999999, 10.62993 109.84261, 10.62993 109.84261, 0 120.47254, 0 120.47254, 10.62993 131.10246999999998, 10.62993 131.10246999999998, 0 141.73239999999998, 0 141.73239999999998, 10.62993 152.36233, 10.62993 152.36233, 0 162.99226, 0 162.99226, 10.62993 173.62219, 10.62993 173.62219, 0 184.25212, 0 184.25212, 10.62993 194.88205, 10.62993 194.88205, 0 205.51198, 0 205.51198, 10.62993 216.14191, 10.62993 216.14191, 0 226.77184, 0 226.77184, 10.62993 237.40177, 10.62993 237.40177, 0 248.0317, 0 248.0317, 10.62993 258.66163, 10.62993 258.66163, 0 269.29156, 0 269.29156, 10.62993 279.92149, 10.62993 279.92149, 0 290.55142, 0 290.55142, 10.62993 301.18134999999995, 10.62993 301.18134999999995, 0 311.81128, 0 311.81128, 10.62993 322.44120999999996, 10.62993 322.44120999999996, 0 333.07114, 0 333.07114, 10.62993 343.70106999999996, 10.62993 343.70106999999996, 0 354.331, 0 354.331, 10.62993 364.96092999999996, 10.62993 364.96092999999996, 0 375.59086, 0 375.59086, 10.62993 386.22078999999997, 10.62993 386.22078999999997, 0 396.85072, 0 396.85072, 10.62993 407.48064999999997, 10.62993 407.48064999999997, 0 418.11058, 0 418.11058, 10.62993 428.74051, 10.62993 428.74051, 0 439.37044000000003, 0 439.37044000000003, 10.62993 450.00037, 10.62993 450.00037, 0 460.63030000000003, 0 460.63030000000003, 10.62993 471.26023, 10.62993 471.26023, 0 481.89016000000004, 0 481.89016000000004, 10.62993 492.52009, 10.62993 492.52009, 0 503.15002000000004, 0 503.15002000000004, 10.62993 513.77995, 10.62993 513.77995, 0 524.40988, 0 524.40988, 10.62993 535.03981, 10.62993 535.03981, 0 545.6697399999999, 0 545.6697399999999, 10.62993 556.29967, 10.62993 556.29967, 0 566.9295999999999, 0 566.9295999999999, 10.62993 577.55953, 10.62993 577.55953, 0 588.1894599999999, 0 588.1894599999999, 10.62993 598.81939, 10.62993 598.81939, 0 609.44932, 0 609.44932, 10.62993 620.07925, 10.62993 620.07925, 0 637.7958, 0 637.7958, 10.62993 644.88242, 10.62993 644.88242, 14.17324 655.51235, 14.17324 655.51235, 28.34648 644.88242, 28.34648 644.88242, 38.97641 655.51235, 38.97641 655.51235, 49.60634 644.88242, 49.60634 644.88242, 60.23627 655.51235, 60.23627 655.51235, 70.86619999999999 644.88242, 70.86619999999999 644.88242, 81.49613 655.51235, 81.49613 655.51235, 92.12606 644.88242, 92.12606 644.88242, 102.75599 655.51235, 102.75599 655.51235, 113.38592 644.88242, 113.38592 644.88242, 124.01585 655.51235, 124.01585 655.51235, 134.64578 644.88242, 134.64578 644.88242, 145.27571 655.51235, 145.27571 655.51235, 155.90564 644.88242, 155.90564 644.88242, 166.53557 655.51235, 166.53557 655.51235, 177.1655 644.88242, 177.1655 644.88242, 187.79543 655.51235, 187.79543 655.51235, 198.42536 644.88242, 198.42536 644.88242, 209.05529 655.51235, 209.05529 655.51235, 219.68522000000002 644.88242, 219.68522000000002 644.88242, 230.31515000000002 655.51235, 230.31515000000002 655.51235, 240.94508000000002 644.88242, 240.94508000000002 644.88242, 251.57501000000002 655.51235, 251.57501000000002 655.51235, 262.20494 644.88242, 262.20494 644.88242, 272.83487 655.51235, 272.83487 655.51235, 283.46479999999997 644.88242, 283.46479999999997 644.88242, 294.09472999999997 655.51235, 294.09472999999997 655.51235, 304.72466 644.88242, 304.72466 644.88242, 315.35459 655.51235, 315.35459 655.51235, 325.98452 644.88242, 325.98452 644.88242, 336.61445 655.51235, 336.61445 655.51235, 347.24438 644.88242, 347.24438 644.88242, 357.87431 655.51235, 357.87431 655.51235, 368.50424 644.88242, 368.50424 644.88242, 379.13417 655.51235, 379.13417 655.51235, 393.30741 644.88242, 393.30741 644.88242, 396.85071999999997 637.7958, 396.85071999999997 637.7958, 407.48064999999997 620.07925, 407.48064999999997 620.07925, 396.85071999999997 609.44932, 396.85071999999997 609.44932, 407.48064999999997 598.81939, 407.48064999999997 598.81939, 396.85071999999997 588.1894599999999, 396.85071999999997 588.1894599999999, 407.48064999999997 577.55953, 407.48064999999997 577.55953, 396.85071999999997 566.9295999999999, 396.85071999999997 566.9295999999999, 407.48064999999997 556.29967, 407.48064999999997 556.29967, 396.85071999999997 545.6697399999999, 396.85071999999997 545.6697399999999, 407.48064999999997 535.03981, 407.48064999999997 535.03981, 396.85071999999997 524.40988, 396.85071999999997 524.40988, 407.48064999999997 513.77995, 407.48064999999997 513.77995, 396.85071999999997 503.15002000000004, 396.85071999999997 503.15002000000004, 407.48064999999997 492.52009, 407.48064999999997 492.52009, 396.85071999999997 481.89016000000004, 396.85071999999997 481.89016000000004, 407.48064999999997 471.26023, 407.48064999999997 471.26023, 396.85071999999997 460.63030000000003, 396.85071999999997 460.63030000000003, 407.48064999999997 450.00037, 407.48064999999997 450.00037, 396.85071999999997 439.37044000000003, 396.85071999999997 439.37044000000003, 407.48064999999997 428.74051, 407.48064999999997 428.74051, 396.85071999999997 418.11058, 396.85071999999997 418.11058, 407.48064999999997 407.48064999999997, 407.48064999999997 407.48064999999997, 396.85071999999997 396.85072, 396.85071999999997 396.85072, 407.48064999999997 386.22078999999997, 407.48064999999997 386.22078999999997, 396.85071999999997 375.59086, 396.85071999999997 375.59086, 407.48064999999997 364.96092999999996, 407.48064999999997 364.96092999999996, 396.85071999999997 354.331, 396.85071999999997 354.331, 407.48064999999997 343.70106999999996, 407.48064999999997 343.70106999999996, 396.85071999999997 333.07114, 396.85071999999997 333.07114, 407.48064999999997 322.44120999999996, 407.48064999999997 322.44120999999996, 396.85071999999997 311.81128, 396.85071999999997 311.81128, 407.48064999999997 301.18134999999995, 407.48064999999997 301.18134999999995, 396.85071999999997 290.55142, 396.85071999999997 290.55142, 407.48064999999997 279.92149, 407.48064999999997 279.92149, 396.85071999999997 269.29156, 396.85071999999997 269.29156, 407.48064999999997 258.66163, 407.48064999999997 258.66163, 396.85071999999997 248.0317, 396.85071999999997 248.0317, 407.48064999999997 237.40177, 407.48064999999997 237.40177, 396.85071999999997 226.77184, 396.85071999999997 226.77184, 407.48064999999997 216.14191, 407.48064999999997 216.14191, 396.85071999999997 205.51198, 396.85071999999997 205.51198, 407.48064999999997 194.88205, 407.48064999999997 194.88205, 396.85071999999997 184.25212, 396.85071999999997 184.25212, 407.48064999999997 173.62219, 407.48064999999997 173.62219, 396.85071999999997 162.99226, 396.85071999999997 162.99226, 407.48064999999997 152.36233, 407.48064999999997 152.36233, 396.85071999999997 141.73239999999998, 396.85071999999997 141.73239999999998, 407.48064999999997 131.10246999999998, 407.48064999999997 131.10246999999998, 396.85071999999997 120.47254, 396.85071999999997 120.47254, 407.48064999999997 109.84261, 407.48064999999997 109.84261, 396.85071999999997 99.21267999999999, 396.85071999999997 99.21267999999999, 407.48064999999997 88.58275, 407.48064999999997 88.58275, 396.85071999999997 77.95282, 396.85071999999997 77.95282, 407.48064999999997 67.32289, 407.48064999999997 67.32289, 396.85071999999997 56.69296, 396.85071999999997 56.69296, 407.48064999999997 46.06303, 407.48064999999997 46.06303, 396.85071999999997 35.433099999999996, 396.85071999999997 35.433099999999996, 407.48064999999997 17.716549999999998, 407.48064999999997 17.716549999999998, 396.85071999999997 10.62993, 396.85071999999997 10.62993, 393.30741 0, 393.30741 0, 379.13417 10.62993, 379.13417 10.62993, 368.50424 0, 368.50424 0, 357.87431 10.62993, 357.87431 10.62993, 347.24438 0, 347.24438 0, 336.61445 10.62993, 336.61445 10.62993, 325.98452 0, 325.98452 0, 315.35459 10.62993, 315.35459 10.62993, 304.72466 0, 304.72466 0, 294.09472999999997 10.62993, 294.09472999999997 10.62993, 283.46479999999997 0, 283.46479999999997 0, 272.83487 10.62993, 272.83487 10.62993, 262.20494 0, 262.20494 0, 251.57501000000002 10.62993, 251.57501000000002 10.62993, 240.94508000000002 0, 240.94508000000002 0, 230.31515000000002 10.62993, 230.31515000000002 10.62993, 219.68522000000002 0, 219.68522000000002 0, 209.05529 10.62993, 209.05529 10.62993, 198.42536 0, 198.42536 0, 187.79543 10.62993, 187.79543 10.62993, 177.1655 0, 177.1655 0, 166.53557 10.62993, 166.53557 10.62993, 155.90564 0, 155.90564 0, 145.27571 10.62993, 145.27571 10.62993, 134.64578 0, 134.64578 0, 124.01585 10.62993, 124.01585 10.62993, 113.38592 0, 113.38592 0, 102.75599 10.62993, 102.75599 10.62993, 92.12606 0, 92.12606 0, 81.49613 10.62993, 81.49613 10.62993, 70.86619999999999 0, 70.86619999999999 0, 60.23627 10.62993, 60.23627 10.62993, 49.60634 0, 49.60634 0, 38.97641 10.62993, 38.97641 10.62993, 28.34648 0, 28.34648 0, 14.17324 10.62993, 14.17324 "/> 
</g></svg>